<svg version="1.1" id="Layer_1" xmlns="http://www.w3.org/2000/svg" xmlns:xlink="http://www.w3.org/1999/xlink" x="0px" y="0px"
	 width="100%" viewBox="0 0 2000 2000" enable-background="new 0 0 2000 2000" xml:space="preserve">
<path fill="#FFFFFF" opacity="1.000000" stroke="none" 
	d="
M903.000000,2001.000000 
	C602.000000,2001.000000 301.500000,2001.000000 1.000000,2001.000000 
	C1.000000,1334.333374 1.000000,667.666687 1.000000,1.000000 
	C667.666687,1.000000 1334.333374,1.000000 2001.000000,1.000000 
	C2001.000000,667.666687 2001.000000,1334.333374 2001.000000,2001.000000 
	C1635.166626,2001.000000 1269.333374,2001.000000 903.000000,2001.000000 
M1088.644287,782.153748 
	C1088.318115,782.328613 1088.159790,782.601013 1087.601318,783.389832 
	C1074.667603,790.285583 1062.246826,797.926575 1051.703491,808.266235 
	C1040.310181,819.439392 1030.199829,831.555298 1026.671875,847.603149 
	C1024.861938,855.835999 1024.213989,864.324219 1022.434326,873.073181 
	C968.998535,946.483215 915.562744,1019.893188 861.801208,1093.750732 
	C843.347534,1069.360352 825.287292,1045.490112 807.031616,1021.361511 
	C808.789490,1019.313660 810.491150,1017.294678 812.231323,1015.309448 
	C842.968323,980.241943 875.199524,946.464966 903.384216,909.194885 
	C914.132080,894.982300 925.526306,881.184204 932.513733,864.594360 
	C940.955444,844.551819 942.481445,824.251404 932.383728,804.265381 
	C924.250000,788.166809 910.209961,778.428711 894.379456,771.066956 
	C869.735046,759.606506 843.459351,756.231750 816.598877,755.808533 
	C813.168640,755.754517 811.184692,756.904236 809.227356,759.569275 
	C774.431396,806.947632 739.550415,854.263611 704.677979,901.585815 
	C702.565002,904.453003 700.371094,907.260498 697.991333,910.389832 
	C680.352661,887.177185 663.159485,864.489990 645.899536,841.853699 
	C629.035645,819.736877 612.584229,797.289062 592.492676,777.840210 
	C582.555542,768.220886 571.278625,761.228882 557.664001,758.472717 
	C518.580200,750.560425 485.393890,759.612854 460.610413,792.544617 
	C449.218811,807.681519 442.049927,824.692871 437.647003,843.033875 
	C436.842987,846.383118 437.401917,848.548950 439.573303,851.080627 
	C479.812012,897.995178 519.969910,944.979065 560.136230,991.955688 
	C566.590881,999.504883 573.003967,1007.089600 579.545593,1014.786621 
	C564.899902,1031.861450 550.521301,1048.480591 536.302002,1065.234985 
	C512.589844,1093.174683 488.793579,1121.046631 465.410522,1149.260254 
	C454.855621,1161.995728 445.999481,1175.903076 442.425568,1192.478882 
	C438.295715,1211.633057 438.794922,1230.299683 449.307098,1247.531494 
	C462.936554,1269.873169 483.999634,1281.369263 508.776245,1286.895264 
	C528.432251,1291.279297 548.345581,1291.847168 568.402771,1290.284668 
	C572.194824,1289.989258 574.289795,1288.736572 576.352356,1285.749268 
	C610.405273,1236.426758 644.563110,1187.176758 678.702759,1137.914185 
	C679.685303,1136.496460 680.726196,1135.119263 682.004578,1133.358765 
	C690.703003,1145.695190 698.828491,1157.469238 707.210876,1169.057495 
	C727.303650,1196.834717 745.853760,1225.716309 768.446106,1251.695557 
	C787.577515,1273.695068 809.424927,1289.190430 839.605347,1292.540771 
	C883.368347,1297.399048 924.315674,1273.709229 940.048828,1232.421875 
	C940.571228,1231.050903 941.266602,1229.686035 942.149414,1228.521606 
	C948.278198,1220.438721 954.626343,1212.518555 960.628113,1204.343628 
	C981.496643,1175.919312 1002.252991,1147.412476 1023.257446,1119.863281 
	C1023.280334,1206.180420 1023.287354,1292.497681 1023.354736,1378.814819 
	C1023.360474,1386.141724 1023.094360,1393.567627 1024.152710,1400.771484 
	C1025.642456,1410.911743 1026.995239,1421.370972 1030.635620,1430.836670 
	C1039.265015,1453.274536 1057.311279,1464.494629 1080.368286,1468.095093 
	C1110.387817,1472.783325 1140.446411,1472.469849 1170.418213,1467.490601 
	C1181.845947,1465.592041 1193.207764,1463.296875 1204.863037,1461.133545 
	C1204.863037,1401.602295 1204.863037,1342.857666 1204.863037,1283.858765 
	C1212.496460,1286.001709 1219.597900,1288.334229 1226.855225,1289.978638 
	C1279.101318,1301.816650 1331.154175,1299.529419 1382.545654,1285.688965 
	C1466.679077,1263.030762 1519.921875,1208.333740 1545.228394,1125.602417 
	C1553.657104,1098.047363 1557.291504,1069.718628 1558.423706,1041.013184 
	C1559.801880,1006.066284 1557.934326,971.327148 1548.847534,937.442688 
	C1525.902710,851.880249 1472.282349,794.786194 1388.303955,766.342834 
	C1357.389648,755.872070 1325.449463,750.654846 1293.283081,747.234375 
	C1360.725220,654.564575 1428.176636,561.901428 1495.604858,469.221497 
	C1520.463135,435.054077 1545.796753,401.216034 1569.940796,366.550232 
	C1592.408569,334.291443 1584.500854,291.382904 1553.052002,267.922729 
	C1520.529053,243.661362 1475.163940,250.729950 1451.327637,283.625641 
	C1424.777100,320.267365 1398.087402,356.808502 1371.460205,393.394775 
	C1286.982178,509.469025 1202.493530,625.535645 1118.042969,741.629761 
	C1108.274292,755.058655 1098.717163,768.641357 1089.029785,782.058960 
	C1089.029785,782.058960 1089.127808,782.044128 1088.644287,782.153748 
z"/>
<path fill="#000000" opacity="1.000000" stroke="none" 
	d="
M1293.044312,747.846680 
	C1325.449463,750.654846 1357.389648,755.872070 1388.303955,766.342834 
	C1472.282349,794.786194 1525.902710,851.880249 1548.847534,937.442688 
	C1557.934326,971.327148 1559.801880,1006.066284 1558.423706,1041.013184 
	C1557.291504,1069.718628 1553.657104,1098.047363 1545.228394,1125.602417 
	C1519.921875,1208.333740 1466.679077,1263.030762 1382.545654,1285.688965 
	C1331.154175,1299.529419 1279.101318,1301.816650 1226.855225,1289.978638 
	C1219.597900,1288.334229 1212.496460,1286.001709 1204.863037,1283.858765 
	C1204.863037,1342.857666 1204.863037,1401.602295 1204.863037,1461.133545 
	C1193.207764,1463.296875 1181.845947,1465.592041 1170.418213,1467.490601 
	C1140.446411,1472.469849 1110.387817,1472.783325 1080.368286,1468.095093 
	C1057.311279,1464.494629 1039.265015,1453.274536 1030.635620,1430.836670 
	C1026.995239,1421.370972 1025.642456,1410.911743 1024.152710,1400.771484 
	C1023.094360,1393.567627 1023.360474,1386.141724 1023.354736,1378.814819 
	C1023.287354,1292.497681 1023.280334,1206.180420 1023.275391,1118.948730 
	C1023.292236,1038.246582 1023.292908,958.458740 1023.279602,878.670959 
	C1023.279297,876.679626 1023.123901,874.688354 1023.040894,872.697021 
	C1024.213989,864.324219 1024.861938,855.835999 1026.671875,847.603149 
	C1030.199829,831.555298 1040.310181,819.439392 1051.703491,808.266235 
	C1062.246826,797.926575 1074.667603,790.285583 1088.174683,783.168579 
	C1088.874634,782.646240 1089.001221,782.345215 1089.127808,782.044128 
	C1089.127808,782.044128 1089.029785,782.058960 1089.421021,782.171387 
	C1096.036255,779.532349 1102.191162,776.609863 1108.495483,774.056824 
	C1153.277222,755.921448 1200.076050,748.054321 1248.161255,747.204895 
	C1263.113770,746.940735 1278.082886,747.606567 1293.044312,747.846680 
M1203.683105,926.500000 
	C1203.683105,995.473694 1203.683105,1064.447388 1203.683105,1133.421021 
	C1203.683105,1134.420654 1203.372681,1135.561768 1203.750000,1136.389526 
	C1204.473389,1137.977051 1205.236084,1140.089600 1206.590942,1140.766602 
	C1234.895264,1154.910156 1264.484863,1158.150635 1295.363037,1151.284058 
	C1326.195435,1144.427734 1347.715088,1126.586426 1360.229858,1097.665527 
	C1367.793335,1080.186890 1371.101440,1061.792969 1372.306152,1042.926758 
	C1374.239624,1012.646362 1372.958862,982.657715 1363.075806,953.637817 
	C1353.800781,926.403137 1336.812256,905.805908 1309.172852,896.035583 
	C1274.080811,883.630920 1239.773071,887.558655 1206.617310,903.609375 
	C1205.184692,904.302795 1203.922974,906.787476 1203.815186,908.514832 
	C1203.463379,914.157349 1203.683105,919.835632 1203.683105,926.500000 
z"/>
<path fill="#FF3131" opacity="1.000000" stroke="none" 
	d="
M1022.737549,872.885132 
	C1023.123901,874.688354 1023.279297,876.679626 1023.279602,878.670959 
	C1023.292908,958.458740 1023.292236,1038.246582 1023.172607,1118.485718 
	C1002.252991,1147.412476 981.496643,1175.919312 960.628113,1204.343628 
	C954.626343,1212.518555 948.278198,1220.438721 942.149414,1228.521606 
	C941.266602,1229.686035 940.571228,1231.050903 940.048828,1232.421875 
	C924.315674,1273.709229 883.368347,1297.399048 839.605347,1292.540771 
	C809.424927,1289.190430 787.577515,1273.695068 768.446106,1251.695557 
	C745.853760,1225.716309 727.303650,1196.834717 707.210876,1169.057495 
	C698.828491,1157.469238 690.703003,1145.695190 682.004578,1133.358765 
	C680.726196,1135.119263 679.685303,1136.496460 678.702759,1137.914185 
	C644.563110,1187.176758 610.405273,1236.426758 576.352356,1285.749268 
	C574.289795,1288.736572 572.194824,1289.989258 568.402771,1290.284668 
	C548.345581,1291.847168 528.432251,1291.279297 508.776245,1286.895264 
	C483.999634,1281.369263 462.936554,1269.873169 449.307098,1247.531494 
	C438.794922,1230.299683 438.295715,1211.633057 442.425568,1192.478882 
	C445.999481,1175.903076 454.855621,1161.995728 465.410522,1149.260254 
	C488.793579,1121.046631 512.589844,1093.174683 536.302002,1065.234985 
	C550.521301,1048.480591 564.899902,1031.861450 579.545593,1014.786621 
	C573.003967,1007.089600 566.590881,999.504883 560.136230,991.955688 
	C519.969910,944.979065 479.812012,897.995178 439.573303,851.080627 
	C437.401917,848.548950 436.842987,846.383118 437.647003,843.033875 
	C442.049927,824.692871 449.218811,807.681519 460.610413,792.544617 
	C485.393890,759.612854 518.580200,750.560425 557.664001,758.472717 
	C571.278625,761.228882 582.555542,768.220886 592.492676,777.840210 
	C612.584229,797.289062 629.035645,819.736877 645.899536,841.853699 
	C663.159485,864.489990 680.352661,887.177185 697.991333,910.389832 
	C700.371094,907.260498 702.565002,904.453003 704.677979,901.585815 
	C739.550415,854.263611 774.431396,806.947632 809.227356,759.569275 
	C811.184692,756.904236 813.168640,755.754517 816.598877,755.808533 
	C843.459351,756.231750 869.735046,759.606506 894.379456,771.066956 
	C910.209961,778.428711 924.250000,788.166809 932.383728,804.265381 
	C942.481445,824.251404 940.955444,844.551819 932.513733,864.594360 
	C925.526306,881.184204 914.132080,894.982300 903.384216,909.194885 
	C875.199524,946.464966 842.968323,980.241943 812.231323,1015.309448 
	C810.491150,1017.294678 808.789490,1019.313660 807.031616,1021.361511 
	C825.287292,1045.490112 843.347534,1069.360352 861.801208,1093.750732 
	C915.562744,1019.893188 968.998535,946.483215 1022.737549,872.885132 
z"/>
<path fill="#FF3131" opacity="1.000000" stroke="none" 
	d="
M1293.163696,747.540527 
	C1278.082886,747.606567 1263.113770,746.940735 1248.161255,747.204895 
	C1200.076050,748.054321 1153.277222,755.921448 1108.495483,774.056824 
	C1102.191162,776.609863 1096.036255,779.532349 1089.437012,782.218262 
	C1098.717163,768.641357 1108.274292,755.058655 1118.042969,741.629761 
	C1202.493530,625.535645 1286.982178,509.469025 1371.460205,393.394775 
	C1398.087402,356.808502 1424.777100,320.267365 1451.327637,283.625641 
	C1475.163940,250.729950 1520.529053,243.661362 1553.052002,267.922729 
	C1584.500854,291.382904 1592.408569,334.291443 1569.940796,366.550232 
	C1545.796753,401.216034 1520.463135,435.054077 1495.604858,469.221497 
	C1428.176636,561.901428 1360.725220,654.564575 1293.163696,747.540527 
z"/>
<path fill="#FF3131" opacity="1.000000" stroke="none" 
	d="
M1088.885986,782.098938 
	C1089.001221,782.345215 1088.874634,782.646240 1088.458618,782.959106 
	C1088.159790,782.601013 1088.318115,782.328613 1088.885986,782.098938 
z"/>
<path fill="#FFFFFF" opacity="1.000000" stroke="none" 
	d="
M1203.683105,926.000061 
	C1203.683105,919.835632 1203.463379,914.157349 1203.815186,908.514832 
	C1203.922974,906.787476 1205.184692,904.302795 1206.617310,903.609375 
	C1239.773071,887.558655 1274.080811,883.630920 1309.172852,896.035583 
	C1336.812256,905.805908 1353.800781,926.403137 1363.075806,953.637817 
	C1372.958862,982.657715 1374.239624,1012.646362 1372.306152,1042.926758 
	C1371.101440,1061.792969 1367.793335,1080.186890 1360.229858,1097.665527 
	C1347.715088,1126.586426 1326.195435,1144.427734 1295.363037,1151.284058 
	C1264.484863,1158.150635 1234.895264,1154.910156 1206.590942,1140.766602 
	C1205.236084,1140.089600 1204.473389,1137.977051 1203.750000,1136.389526 
	C1203.372681,1135.561768 1203.683105,1134.420654 1203.683105,1133.421021 
	C1203.683105,1064.447388 1203.683105,995.473694 1203.683105,926.000061 
z"/>
</svg>